{
	"asset":{
		"version":"2.0",
		"generator":"Created using the official Cinema 4D glTF Exporter 1.000x284978"
	},
	"accessors":[{
		"bufferView":0,
		"count":252771,
		"type":"SCALAR",
		"componentType":5123,
		"byteOffset":0,
		"min":[0],
		"max":[51090]
	},
	{
		"bufferView":1,
		"count":51091,
		"type":"VEC3",
		"componentType":5126,
		"byteOffset":0,
		"min":[-25.792999267578126,
		-16.443899154663087,
		-27.659820556640626],
		"max":[25.792999267578126,
		39.11872100830078,
		45.40338134765625]
	},
	{
		"bufferView":1,
		"count":51091,
		"type":"VEC3",
		"componentType":5126,
		"byteOffset":12,
		"min":[-1.0,
		-1.0,
		-1.0],
		"max":[1.0,
		1.0,
		1.0]
	},
	{
		"bufferView":1,
		"count":51091,
		"type":"VEC2",
		"componentType":5126,
		"byteOffset":24,
		"min":[0.0,
		0.0],
		"max":[1.0007679462432862,
		0.9990794658660889]
	}],
	"scenes":[{
		"nodes":[0]
	}],
	"buffers":[{
		"uri":"data:application/octet-stream;base64,",
		"byteLength":2140456
	}],
	"nodes":[{
		"name":".1",
		"mesh":0
	}],
	"meshes":[{
		"name":".1",
		"primitives":[{
			"attributes":{
				"POSITION":1,
				"NORMAL":2,
				"TEXCOORD_0":3
			},
			"indices":0,
			"material":0
		}]
	}],
	"materials":[{
		"pbrMetallicRoughness":{
			"baseColorTexture":{
				"index":0
			},
			"baseColorFactor":[1.0,
			1.0,
			1.0,
			1.0],
			"metallicFactor":0.0,
			"roughnessFactor":0.5
		},
		"emissiveFactor":[0.0,
		0.0,
		0.0],
		"alphaMode":"OPAQUE",
		"doubleSided":false,
		"name":"default"
	}],
	"bufferViews":[{
		"buffer":0,
		"byteOffset":0,
		"byteLength":505542,
		"target":34963
	},
	{
		"buffer":0,
		"byteOffset":505544,
		"byteLength":1634912,
		"target":34962,
		"byteStride":32
	}],
	"images":[{
		"uri":"data:image/jpeg;base64,"
	}],
	"samplers":[{
		"magFilter":9729,
		"minFilter":9729,
		"wrapS":10497,
		"wrapT":10497
	}],
	"textures":[{
		"sampler":0,
		"source":0
	}]
}